<?xml version="1.0" encoding="utf-8"?>
<!-- Generator: Adobe Illustrator 19.0.0, SVG Export Plug-In . SVG Version: 6.00 Build 0)  -->
<svg version="1.1" id="图层_1" xmlns="http://www.w3.org/2000/svg" xmlns:xlink="http://www.w3.org/1999/xlink" x="0px" y="0px"
	 viewBox="-439 441 120 120" style="enable-background:new -439 441 120 120;" xml:space="preserve">
<style type="text/css">
	.st0{fill:#C1381F;}
</style>
<g>
	<g>
		<path class="st0" d="M-361.4,533c-0.3-0.2-0.9-0.3-1.3-0.3c-2.7-0.2-5.5-0.2-8.2-0.5c-7.4-0.8-14.4-2.7-21.1-5.9
			c-6.7-3.2-12.6-7.4-17.2-13.3c-5.3-6.7-7.8-14.3-6.3-22.9c1.7-9.8,9.4-17.9,20.4-18.1c3.9-0.1,7.6,0.7,10.8,3
			c3.5,2.5,5.1,5.8,4.4,10.1c-0.9,5.6-7.1,9.1-12.3,7c-1.1-0.4-2.1-1.1-2.8-2.3c0.6,0,1.1,0.1,1.6,0.1c2.4-0.2,4.2-1.9,4.4-4.2
			c0.3-2.7-1-4.8-3.4-5.5c-1.8-0.5-3.6-0.3-5.3,0.4c-4.6,2-7.2,7.8-5.7,13c1.3,4.7,4.6,7.5,9,9.1c6.4,2.3,12.6,1.5,18.6-1.3
			c14.6-6.8,21.3-24.2,15-39.1c-2.9-6.9-7.8-12-15.1-14.4c-4.2-1.4-8.7-1.7-13.1-1.7l-49,0v88.7l75.3,0c1.2,0,1.5-0.8,1.5-0.8
			C-360.8,533.6-361.1,533.2-361.4,533z"/>
	</g>
	<g>
		<g>
			<path class="st0" d="M-430.9,545.5c0.7,0.7,1,1.7,1,3.1c0,1.4-0.3,2.5-1,3.2c-0.6,0.7-1.5,1.1-2.5,1.1c-0.6,0-1.2-0.2-1.6-0.5
				c-0.2-0.2-0.5-0.4-0.7-0.8v4.2h-2.1v-11.2h2v1.2c0.2-0.4,0.5-0.6,0.7-0.8c0.5-0.4,1-0.5,1.7-0.5
				C-432.4,544.5-431.6,544.9-430.9,545.5z M-432.5,547.1c-0.3-0.5-0.8-0.7-1.4-0.7c-0.8,0-1.3,0.4-1.6,1.1
				c-0.1,0.4-0.2,0.9-0.2,1.5c0,0.9,0.3,1.6,0.8,2c0.3,0.2,0.7,0.3,1.1,0.3c0.6,0,1-0.2,1.4-0.7c0.3-0.5,0.5-1.1,0.5-1.8
				C-432.1,548.1-432.2,547.5-432.5,547.1z"/>
			<path class="st0" d="M-426.3,543.7h-2.1v-1.9h2.1V543.7z M-428.4,544.7h2.1v8.1h-2.1V544.7z"/>
			<path class="st0" d="M-419,544.8c0.6,0.3,1,0.6,1.4,1.2c0.3,0.5,0.5,1,0.6,1.7c0.1,0.4,0.1,0.9,0.1,1.6h-5.9
				c0,0.8,0.3,1.4,0.8,1.7c0.3,0.2,0.7,0.3,1.2,0.3c0.5,0,0.9-0.1,1.2-0.4c0.2-0.1,0.3-0.3,0.4-0.6h2.2c-0.1,0.5-0.3,1-0.8,1.5
				c-0.7,0.8-1.7,1.2-3,1.2c-1.1,0-2-0.3-2.8-1c-0.8-0.7-1.2-1.7-1.2-3.2c0-1.4,0.4-2.5,1.1-3.2c0.7-0.7,1.7-1.1,2.9-1.1
				C-420.2,544.5-419.5,544.6-419,544.8z M-422.1,546.7c-0.3,0.3-0.5,0.7-0.6,1.2h3.6c0-0.6-0.2-1-0.6-1.3c-0.3-0.3-0.8-0.4-1.2-0.4
				C-421.4,546.2-421.8,546.4-422.1,546.7z"/>
			<path class="st0" d="M-411.3,544.5c0,0,0.1,0,0.2,0v2.2c-0.1,0-0.3,0-0.4,0c-0.1,0-0.2,0-0.3,0c-0.8,0-1.4,0.3-1.7,0.8
				c-0.2,0.3-0.2,0.8-0.2,1.4v3.9h-2.1v-8.1h2v1.4c0.3-0.5,0.6-0.9,0.9-1.1C-412.6,544.7-412.1,544.5-411.3,544.5
				C-411.4,544.5-411.4,544.5-411.3,544.5z"/>
			<path class="st0" d="M-405.5,544.5c0,0,0.1,0,0.2,0v2.2c-0.1,0-0.3,0-0.4,0c-0.1,0-0.2,0-0.3,0c-0.8,0-1.4,0.3-1.7,0.8
				c-0.2,0.3-0.2,0.8-0.2,1.4v3.9h-2.1v-8.1h2v1.4c0.3-0.5,0.6-0.9,0.9-1.1C-406.7,544.7-406.2,544.5-405.5,544.5
				C-405.5,544.5-405.5,544.5-405.5,544.5z"/>
			<path class="st0" d="M-398.8,544.8c0.6,0.3,1,0.6,1.4,1.2c0.3,0.5,0.5,1,0.6,1.7c0.1,0.4,0.1,0.9,0.1,1.6h-5.9
				c0,0.8,0.3,1.4,0.8,1.7c0.3,0.2,0.7,0.3,1.2,0.3c0.5,0,0.9-0.1,1.2-0.4c0.2-0.1,0.3-0.3,0.4-0.6h2.2c-0.1,0.5-0.3,1-0.8,1.5
				c-0.7,0.8-1.7,1.2-3,1.2c-1.1,0-2-0.3-2.8-1c-0.8-0.7-1.2-1.7-1.2-3.2c0-1.4,0.4-2.5,1.1-3.2c0.7-0.7,1.7-1.1,2.9-1.1
				C-400,544.5-399.3,544.6-398.8,544.8z M-401.9,546.7c-0.3,0.3-0.5,0.7-0.6,1.2h3.6c0-0.6-0.2-1-0.6-1.3c-0.3-0.3-0.8-0.4-1.2-0.4
				C-401.2,546.2-401.6,546.4-401.9,546.7z"/>
			<path class="st0" d="M-386.6,547.6c0-0.3-0.1-0.6-0.3-0.8c-0.2-0.3-0.6-0.5-1.1-0.5c-0.7,0-1.2,0.4-1.5,1.1
				c-0.1,0.4-0.2,0.9-0.2,1.5c0,0.6,0.1,1.1,0.2,1.4c0.3,0.7,0.7,1,1.4,1c0.5,0,0.8-0.1,1.1-0.4c0.2-0.3,0.3-0.6,0.4-1h2.2
				c0,0.6-0.3,1.2-0.7,1.8c-0.7,0.9-1.6,1.4-2.9,1.4c-1.3,0-2.3-0.4-2.9-1.2c-0.6-0.8-0.9-1.8-0.9-3c0-1.4,0.3-2.5,1-3.2
				c0.7-0.8,1.6-1.2,2.8-1.2c1,0,1.8,0.2,2.5,0.7c0.6,0.5,1,1.3,1.1,2.4H-386.6z"/>
			<path class="st0" d="M-379.8,547.8c0.4,0,0.7-0.1,0.8-0.2c0.3-0.1,0.5-0.3,0.5-0.6c0-0.3-0.1-0.6-0.3-0.7c-0.2-0.1-0.6-0.2-1-0.2
				c-0.5,0-0.9,0.1-1.1,0.4c-0.1,0.2-0.2,0.4-0.3,0.7h-2c0-0.7,0.2-1.3,0.6-1.7c0.6-0.7,1.5-1.1,2.9-1.1c0.9,0,1.7,0.2,2.4,0.5
				c0.7,0.4,1,1,1,2v3.7c0,0.3,0,0.6,0,0.9c0,0.3,0.1,0.5,0.1,0.6c0.1,0.1,0.2,0.2,0.3,0.2v0.3h-2.3c-0.1-0.2-0.1-0.3-0.1-0.5
				c0-0.1,0-0.3-0.1-0.5c-0.3,0.3-0.6,0.6-1,0.8c-0.5,0.3-1,0.4-1.5,0.4c-0.7,0-1.3-0.2-1.8-0.6c-0.5-0.4-0.7-1-0.7-1.8
				c0-1,0.4-1.7,1.2-2.2c0.4-0.2,1-0.4,1.9-0.5L-379.8,547.8z M-378.5,548.8c-0.1,0.1-0.3,0.2-0.4,0.2c-0.1,0.1-0.3,0.1-0.6,0.1
				l-0.5,0.1c-0.4,0.1-0.8,0.2-1,0.3c-0.3,0.2-0.5,0.5-0.5,0.9c0,0.4,0.1,0.6,0.3,0.8c0.2,0.2,0.4,0.2,0.7,0.2
				c0.5,0,0.9-0.1,1.3-0.4c0.4-0.3,0.6-0.8,0.6-1.5V548.8z"/>
			<path class="st0" d="M-370.1,544.5c0,0,0.1,0,0.2,0v2.2c-0.1,0-0.3,0-0.4,0c-0.1,0-0.2,0-0.3,0c-0.8,0-1.4,0.3-1.7,0.8
				c-0.2,0.3-0.2,0.8-0.2,1.4v3.9h-2.1v-8.1h2v1.4c0.3-0.5,0.6-0.9,0.9-1.1C-371.3,544.7-370.8,544.5-370.1,544.5
				C-370.2,544.5-370.1,544.5-370.1,544.5z"/>
			<path class="st0" d="M-364.4,544.8c0.4,0.2,0.7,0.5,0.9,0.9v-3.8h2.1v10.9h-2v-1.1c-0.3,0.5-0.6,0.8-1,1
				c-0.4,0.2-0.9,0.3-1.4,0.3c-0.9,0-1.7-0.4-2.4-1.1c-0.6-0.8-1-1.7-1-2.9c0-1.4,0.3-2.5,0.9-3.2c0.6-0.8,1.5-1.2,2.5-1.2
				C-365.2,544.5-364.8,544.6-364.4,544.8z M-363.9,550.6c0.3-0.4,0.5-1,0.5-1.7c0-1-0.2-1.7-0.7-2.1c-0.3-0.3-0.7-0.4-1.1-0.4
				c-0.6,0-1.1,0.2-1.4,0.7c-0.3,0.5-0.4,1-0.4,1.7c0,0.7,0.1,1.3,0.4,1.8c0.3,0.4,0.7,0.7,1.3,0.7
				C-364.7,551.2-364.2,551-363.9,550.6z"/>
			<path class="st0" d="M-357.3,543.7h-2.1v-1.9h2.1V543.7z M-359.4,544.7h2.1v8.1h-2.1V544.7z"/>
			<path class="st0" d="M-348.7,545.1c0.5,0.4,0.8,1.2,0.8,2.2v5.4h-2.2v-4.9c0-0.4-0.1-0.7-0.2-1c-0.2-0.4-0.6-0.6-1.2-0.6
				c-0.7,0-1.2,0.3-1.5,0.9c-0.1,0.3-0.2,0.7-0.2,1.2v4.4h-2.1v-8h2v1.2c0.3-0.4,0.5-0.7,0.8-0.9c0.4-0.3,1-0.5,1.6-0.5
				C-349.9,544.5-349.3,544.7-348.7,545.1z"/>
		</g>
		<g>
			<path class="st0" d="M-343.9,537.8h0.9v2.8h3.5v-2.8h0.9v6.6h-0.9v-3h-3.5v3h-0.9V537.8z"/>
			<path class="st0" d="M-337.5,541.1c0.1-0.3,0.2-0.6,0.4-0.8c0.2-0.2,0.4-0.4,0.7-0.5c0.3-0.1,0.6-0.2,1-0.2c0.4,0,0.7,0.1,1,0.2
				c0.3,0.1,0.5,0.3,0.7,0.5c0.2,0.2,0.3,0.5,0.4,0.8c0.1,0.3,0.1,0.6,0.1,1c0,0.4,0,0.7-0.1,1c-0.1,0.3-0.2,0.6-0.4,0.8
				c-0.2,0.2-0.4,0.4-0.7,0.5c-0.3,0.1-0.6,0.2-1,0.2c-0.4,0-0.7-0.1-1-0.2c-0.3-0.1-0.5-0.3-0.7-0.5c-0.2-0.2-0.3-0.5-0.4-0.8
				c-0.1-0.3-0.1-0.6-0.1-1C-337.7,541.7-337.6,541.4-337.5,541.1z M-336.7,542.8c0.1,0.2,0.2,0.4,0.3,0.6c0.1,0.2,0.3,0.3,0.5,0.3
				c0.2,0.1,0.4,0.1,0.6,0.1c0.2,0,0.4,0,0.6-0.1c0.2-0.1,0.3-0.2,0.5-0.3c0.1-0.2,0.2-0.3,0.3-0.6c0.1-0.2,0.1-0.5,0.1-0.8
				c0-0.3,0-0.5-0.1-0.8c-0.1-0.2-0.2-0.4-0.3-0.6c-0.1-0.2-0.3-0.3-0.5-0.4c-0.2-0.1-0.4-0.1-0.6-0.1c-0.2,0-0.4,0-0.6,0.1
				c-0.2,0.1-0.3,0.2-0.5,0.4c-0.1,0.2-0.2,0.3-0.3,0.6c-0.1,0.2-0.1,0.5-0.1,0.8C-336.8,542.3-336.8,542.6-336.7,542.8z"/>
			<path class="st0" d="M-332.2,539.6h0.7v0.7h0c0.4-0.5,0.9-0.8,1.5-0.8c0.3,0,0.6,0.1,0.8,0.2c0.2,0.1,0.4,0.3,0.5,0.6
				c0.2-0.3,0.4-0.5,0.6-0.6c0.3-0.1,0.6-0.2,0.9-0.2c0.2,0,0.5,0,0.7,0.1c0.2,0.1,0.4,0.1,0.5,0.2c0.1,0.1,0.2,0.3,0.3,0.4
				c0.1,0.2,0.1,0.4,0.1,0.6v3.5h-0.8v-3.1c0-0.1,0-0.3,0-0.4c0-0.1-0.1-0.2-0.1-0.3c-0.1-0.1-0.2-0.2-0.3-0.2
				c-0.1-0.1-0.3-0.1-0.5-0.1c-0.4,0-0.7,0.1-0.9,0.3c-0.2,0.2-0.3,0.5-0.3,0.9v3h-0.8v-3.1c0-0.2,0-0.3,0-0.4
				c0-0.1-0.1-0.2-0.1-0.3c-0.1-0.1-0.2-0.2-0.3-0.2c-0.1-0.1-0.3-0.1-0.4-0.1c-0.2,0-0.4,0-0.6,0.1c-0.2,0.1-0.3,0.2-0.4,0.3
				c-0.1,0.1-0.2,0.3-0.2,0.4c0,0.1-0.1,0.3-0.1,0.3v3h-0.8V539.6z"/>
			<path class="st0" d="M-320.3,542.9c-0.1,0.5-0.3,0.9-0.7,1.2c-0.4,0.3-0.8,0.4-1.4,0.4c-0.4,0-0.7-0.1-1-0.2
				c-0.3-0.1-0.5-0.3-0.7-0.5c-0.2-0.2-0.3-0.5-0.4-0.8c-0.1-0.3-0.1-0.6-0.2-1c0-0.4,0.1-0.7,0.2-1c0.1-0.3,0.3-0.6,0.5-0.8
				c0.2-0.2,0.4-0.4,0.7-0.5c0.3-0.1,0.6-0.2,0.9-0.2c0.4,0,0.8,0.1,1.1,0.3c0.3,0.2,0.5,0.4,0.7,0.7c0.2,0.3,0.3,0.6,0.4,0.9
				c0.1,0.3,0.1,0.6,0.1,0.9h-3.6c0,0.2,0,0.4,0.1,0.6c0.1,0.2,0.1,0.4,0.3,0.5c0.1,0.1,0.3,0.3,0.5,0.3c0.2,0.1,0.4,0.1,0.7,0.1
				c0.3,0,0.6-0.1,0.8-0.2c0.2-0.2,0.4-0.4,0.4-0.7H-320.3z M-321.1,541.6c0-0.2-0.1-0.4-0.1-0.5c-0.1-0.2-0.2-0.3-0.3-0.4
				c-0.1-0.1-0.3-0.2-0.4-0.3c-0.2-0.1-0.3-0.1-0.5-0.1c-0.2,0-0.4,0-0.6,0.1c-0.2,0.1-0.3,0.2-0.4,0.3c-0.1,0.1-0.2,0.3-0.3,0.4
				c-0.1,0.2-0.1,0.3-0.1,0.5H-321.1z"/>
		</g>
	</g>
</g>
</svg>
