<?xml version="1.0" encoding="utf-8"?>
<!-- Generator: Adobe Illustrator 19.0.0, SVG Export Plug-In . SVG Version: 6.00 Build 0)  -->
<svg version="1.1" id="图层_1" xmlns="http://www.w3.org/2000/svg" xmlns:xlink="http://www.w3.org/1999/xlink" x="0px" y="0px"
	 viewBox="20 122 114 38" style="enable-background:new 20 122 114 38;" xml:space="preserve">
<style type="text/css">
	.st0{fill:#C1381F;}
	.st1{fill:#CC3300;}
</style>
<g>
	<g>
		<path class="st0" d="M-344.4,614c-0.3-0.2-0.9-0.3-1.3-0.3c-2.7-0.2-5.5-0.2-8.2-0.5c-7.4-0.8-14.4-2.7-21.1-5.9
			s-12.6-7.4-17.2-13.3c-5.3-6.7-7.8-14.3-6.3-22.9c1.7-9.8,9.4-17.9,20.4-18.1c3.9-0.1,7.6,0.7,10.8,3c3.5,2.5,5.1,5.8,4.4,10.1
			c-0.9,5.6-7.1,9.1-12.3,7c-1.1-0.4-2.1-1.1-2.8-2.3c0.6,0,1.1,0.1,1.6,0.1c2.4-0.2,4.2-1.9,4.4-4.2c0.3-2.7-1-4.8-3.4-5.5
			c-1.8-0.5-3.6-0.3-5.3,0.4c-4.6,2-7.2,7.8-5.7,13c1.3,4.7,4.6,7.5,9,9.1c6.4,2.3,12.6,1.5,18.6-1.3c14.6-6.8,21.3-24.2,15-39.1
			c-2.9-6.9-7.8-12-15.1-14.4c-4.2-1.4-8.7-1.7-13.1-1.7h-49v88.7h75.3c1.2,0,1.5-0.8,1.5-0.8C-343.8,614.6-344.1,614.2-344.4,614z"
			/>
	</g>
	<g>
		<g>
			<path class="st0" d="M-413.9,626.5c0.7,0.7,1,1.7,1,3.1c0,1.4-0.3,2.5-1,3.2c-0.6,0.7-1.5,1.1-2.5,1.1c-0.6,0-1.2-0.2-1.6-0.5
				c-0.2-0.2-0.5-0.4-0.7-0.8v4.2h-2.1v-11.2h2v1.2c0.2-0.4,0.5-0.6,0.7-0.8c0.5-0.4,1-0.5,1.7-0.5
				C-415.4,625.5-414.6,625.9-413.9,626.5z M-415.5,628.1c-0.3-0.5-0.8-0.7-1.4-0.7c-0.8,0-1.3,0.4-1.6,1.1
				c-0.1,0.4-0.2,0.9-0.2,1.5c0,0.9,0.3,1.6,0.8,2c0.3,0.2,0.7,0.3,1.1,0.3c0.6,0,1-0.2,1.4-0.7c0.3-0.5,0.5-1.1,0.5-1.8
				C-415.1,629.1-415.2,628.5-415.5,628.1z"/>
			<path class="st0" d="M-409.3,624.7h-2.1v-1.9h2.1V624.7z M-411.4,625.7h2.1v8.1h-2.1V625.7z"/>
			<path class="st0" d="M-402,625.8c0.6,0.3,1,0.6,1.4,1.2c0.3,0.5,0.5,1,0.6,1.7c0.1,0.4,0.1,0.9,0.1,1.6h-5.9
				c0,0.8,0.3,1.4,0.8,1.7c0.3,0.2,0.7,0.3,1.2,0.3s0.9-0.1,1.2-0.4c0.2-0.1,0.3-0.3,0.4-0.6h2.2c-0.1,0.5-0.3,1-0.8,1.5
				c-0.7,0.8-1.7,1.2-3,1.2c-1.1,0-2-0.3-2.8-1s-1.2-1.7-1.2-3.2c0-1.4,0.4-2.5,1.1-3.2s1.7-1.1,2.9-1.1
				C-403.2,625.5-402.5,625.6-402,625.8z M-405.1,627.7c-0.3,0.3-0.5,0.7-0.6,1.2h3.6c0-0.6-0.2-1-0.6-1.3c-0.3-0.3-0.8-0.4-1.2-0.4
				C-404.4,627.2-404.8,627.4-405.1,627.7z"/>
			<path class="st0" d="M-394.3,625.5c0,0,0.1,0,0.2,0v2.2c-0.1,0-0.3,0-0.4,0s-0.2,0-0.3,0c-0.8,0-1.4,0.3-1.7,0.8
				c-0.2,0.3-0.2,0.8-0.2,1.4v3.9h-2.1v-8.1h2v1.4c0.3-0.5,0.6-0.9,0.9-1.1C-395.6,625.7-395.1,625.5-394.3,625.5
				C-394.4,625.5-394.4,625.5-394.3,625.5z"/>
			<path class="st0" d="M-388.5,625.5c0,0,0.1,0,0.2,0v2.2c-0.1,0-0.3,0-0.4,0s-0.2,0-0.3,0c-0.8,0-1.4,0.3-1.7,0.8
				c-0.2,0.3-0.2,0.8-0.2,1.4v3.9h-2.1v-8.1h2v1.4c0.3-0.5,0.6-0.9,0.9-1.1C-389.7,625.7-389.2,625.5-388.5,625.5L-388.5,625.5z"/>
			<path class="st0" d="M-381.8,625.8c0.6,0.3,1,0.6,1.4,1.2c0.3,0.5,0.5,1,0.6,1.7c0.1,0.4,0.1,0.9,0.1,1.6h-5.9
				c0,0.8,0.3,1.4,0.8,1.7c0.3,0.2,0.7,0.3,1.2,0.3s0.9-0.1,1.2-0.4c0.2-0.1,0.3-0.3,0.4-0.6h2.2c-0.1,0.5-0.3,1-0.8,1.5
				c-0.7,0.8-1.7,1.2-3,1.2c-1.1,0-2-0.3-2.8-1s-1.2-1.7-1.2-3.2c0-1.4,0.4-2.5,1.1-3.2s1.7-1.1,2.9-1.1
				C-383,625.5-382.3,625.6-381.8,625.8z M-384.9,627.7c-0.3,0.3-0.5,0.7-0.6,1.2h3.6c0-0.6-0.2-1-0.6-1.3c-0.3-0.3-0.8-0.4-1.2-0.4
				C-384.2,627.2-384.6,627.4-384.9,627.7z"/>
			<path class="st0" d="M-369.6,628.6c0-0.3-0.1-0.6-0.3-0.8c-0.2-0.3-0.6-0.5-1.1-0.5c-0.7,0-1.2,0.4-1.5,1.1
				c-0.1,0.4-0.2,0.9-0.2,1.5s0.1,1.1,0.2,1.4c0.3,0.7,0.7,1,1.4,1c0.5,0,0.8-0.1,1.1-0.4c0.2-0.3,0.3-0.6,0.4-1h2.2
				c0,0.6-0.3,1.2-0.7,1.8c-0.7,0.9-1.6,1.4-2.9,1.4s-2.3-0.4-2.9-1.2s-0.9-1.8-0.9-3c0-1.4,0.3-2.5,1-3.2c0.7-0.8,1.6-1.2,2.8-1.2
				c1,0,1.8,0.2,2.5,0.7c0.6,0.5,1,1.3,1.1,2.4H-369.6z"/>
			<path class="st0" d="M-362.8,628.8c0.4,0,0.7-0.1,0.8-0.2c0.3-0.1,0.5-0.3,0.5-0.6s-0.1-0.6-0.3-0.7c-0.2-0.1-0.6-0.2-1-0.2
				c-0.5,0-0.9,0.1-1.1,0.4c-0.1,0.2-0.2,0.4-0.3,0.7h-2c0-0.7,0.2-1.3,0.6-1.7c0.6-0.7,1.5-1.1,2.9-1.1c0.9,0,1.7,0.2,2.4,0.5
				c0.7,0.4,1,1,1,2v3.7c0,0.3,0,0.6,0,0.9c0,0.3,0.1,0.5,0.1,0.6c0.1,0.1,0.2,0.2,0.3,0.2v0.3h-2.3c-0.1-0.2-0.1-0.3-0.1-0.5
				c0-0.1,0-0.3-0.1-0.5c-0.3,0.3-0.6,0.6-1,0.8c-0.5,0.3-1,0.4-1.5,0.4c-0.7,0-1.3-0.2-1.8-0.6c-0.5-0.4-0.7-1-0.7-1.8
				c0-1,0.4-1.7,1.2-2.2c0.4-0.2,1-0.4,1.9-0.5L-362.8,628.8z M-361.5,629.8c-0.1,0.1-0.3,0.2-0.4,0.2c-0.1,0.1-0.3,0.1-0.6,0.1
				l-0.5,0.1c-0.4,0.1-0.8,0.2-1,0.3c-0.3,0.2-0.5,0.5-0.5,0.9s0.1,0.6,0.3,0.8c0.2,0.2,0.4,0.2,0.7,0.2c0.5,0,0.9-0.1,1.3-0.4
				c0.4-0.3,0.6-0.8,0.6-1.5v-0.7H-361.5z"/>
			<path class="st0" d="M-353.1,625.5c0,0,0.1,0,0.2,0v2.2c-0.1,0-0.3,0-0.4,0s-0.2,0-0.3,0c-0.8,0-1.4,0.3-1.7,0.8
				c-0.2,0.3-0.2,0.8-0.2,1.4v3.9h-2.1v-8.1h2v1.4c0.3-0.5,0.6-0.9,0.9-1.1C-354.3,625.7-353.8,625.5-353.1,625.5
				C-353.2,625.5-353.1,625.5-353.1,625.5z"/>
			<path class="st0" d="M-347.4,625.8c0.4,0.2,0.7,0.5,0.9,0.9v-3.8h2.1v10.9h-2v-1.1c-0.3,0.5-0.6,0.8-1,1s-0.9,0.3-1.4,0.3
				c-0.9,0-1.7-0.4-2.4-1.1c-0.6-0.8-1-1.7-1-2.9c0-1.4,0.3-2.5,0.9-3.2c0.6-0.8,1.5-1.2,2.5-1.2
				C-348.2,625.5-347.8,625.6-347.4,625.8z M-346.9,631.6c0.3-0.4,0.5-1,0.5-1.7c0-1-0.2-1.7-0.7-2.1c-0.3-0.3-0.7-0.4-1.1-0.4
				c-0.6,0-1.1,0.2-1.4,0.7s-0.4,1-0.4,1.7s0.1,1.3,0.4,1.8c0.3,0.4,0.7,0.7,1.3,0.7C-347.7,632.2-347.2,632-346.9,631.6z"/>
			<path class="st0" d="M-340.3,624.7h-2.1v-1.9h2.1V624.7z M-342.4,625.7h2.1v8.1h-2.1V625.7z"/>
			<path class="st0" d="M-331.7,626.1c0.5,0.4,0.8,1.2,0.8,2.2v5.4h-2.2v-4.9c0-0.4-0.1-0.7-0.2-1c-0.2-0.4-0.6-0.6-1.2-0.6
				c-0.7,0-1.2,0.3-1.5,0.9c-0.1,0.3-0.2,0.7-0.2,1.2v4.4h-2.1v-8h2v1.2c0.3-0.4,0.5-0.7,0.8-0.9c0.4-0.3,1-0.5,1.6-0.5
				C-332.9,625.5-332.3,625.7-331.7,626.1z"/>
		</g>
		<g>
			<path class="st0" d="M-326.9,618.8h0.9v2.8h3.5v-2.8h0.9v6.6h-0.9v-3h-3.5v3h-0.9V618.8z"/>
			<path class="st0" d="M-320.5,622.1c0.1-0.3,0.2-0.6,0.4-0.8c0.2-0.2,0.4-0.4,0.7-0.5c0.3-0.1,0.6-0.2,1-0.2s0.7,0.1,1,0.2
				c0.3,0.1,0.5,0.3,0.7,0.5s0.3,0.5,0.4,0.8s0.1,0.6,0.1,1s0,0.7-0.1,1s-0.2,0.6-0.4,0.8c-0.2,0.2-0.4,0.4-0.7,0.5
				c-0.3,0.1-0.6,0.2-1,0.2s-0.7-0.1-1-0.2c-0.3-0.1-0.5-0.3-0.7-0.5s-0.3-0.5-0.4-0.8s-0.1-0.6-0.1-1
				C-320.7,622.7-320.6,622.4-320.5,622.1z M-319.7,623.8c0.1,0.2,0.2,0.4,0.3,0.6c0.1,0.2,0.3,0.3,0.5,0.3c0.2,0.1,0.4,0.1,0.6,0.1
				s0.4,0,0.6-0.1s0.3-0.2,0.5-0.3c0.1-0.2,0.2-0.3,0.3-0.6c0.1-0.2,0.1-0.5,0.1-0.8s0-0.5-0.1-0.8c-0.1-0.2-0.2-0.4-0.3-0.6
				c-0.1-0.2-0.3-0.3-0.5-0.4c-0.2-0.1-0.4-0.1-0.6-0.1s-0.4,0-0.6,0.1s-0.3,0.2-0.5,0.4c-0.1,0.2-0.2,0.3-0.3,0.6
				c-0.1,0.2-0.1,0.5-0.1,0.8C-319.8,623.3-319.8,623.6-319.7,623.8z"/>
			<path class="st0" d="M-315.2,620.6h0.7v0.7l0,0c0.4-0.5,0.9-0.8,1.5-0.8c0.3,0,0.6,0.1,0.8,0.2c0.2,0.1,0.4,0.3,0.5,0.6
				c0.2-0.3,0.4-0.5,0.6-0.6c0.3-0.1,0.6-0.2,0.9-0.2c0.2,0,0.5,0,0.7,0.1s0.4,0.1,0.5,0.2c0.1,0.1,0.2,0.3,0.3,0.4
				c0.1,0.2,0.1,0.4,0.1,0.6v3.5h-0.8v-3.1c0-0.1,0-0.3,0-0.4c0-0.1-0.1-0.2-0.1-0.3c-0.1-0.1-0.2-0.2-0.3-0.2
				c-0.1-0.1-0.3-0.1-0.5-0.1c-0.4,0-0.7,0.1-0.9,0.3c-0.2,0.2-0.3,0.5-0.3,0.9v3h-0.8v-3.1c0-0.2,0-0.3,0-0.4
				c0-0.1-0.1-0.2-0.1-0.3c-0.1-0.1-0.2-0.2-0.3-0.2c-0.1-0.1-0.3-0.1-0.4-0.1c-0.2,0-0.4,0-0.6,0.1s-0.3,0.2-0.4,0.3
				s-0.2,0.3-0.2,0.4c0,0.1-0.1,0.3-0.1,0.3v3h-0.8L-315.2,620.6L-315.2,620.6z"/>
			<path class="st0" d="M-303.3,623.9c-0.1,0.5-0.3,0.9-0.7,1.2c-0.4,0.3-0.8,0.4-1.4,0.4c-0.4,0-0.7-0.1-1-0.2
				c-0.3-0.1-0.5-0.3-0.7-0.5s-0.3-0.5-0.4-0.8s-0.1-0.6-0.2-1c0-0.4,0.1-0.7,0.2-1s0.3-0.6,0.5-0.8s0.4-0.4,0.7-0.5
				c0.3-0.1,0.6-0.2,0.9-0.2c0.4,0,0.8,0.1,1.1,0.3c0.3,0.2,0.5,0.4,0.7,0.7s0.3,0.6,0.4,0.9c0.1,0.3,0.1,0.6,0.1,0.9h-3.6
				c0,0.2,0,0.4,0.1,0.6c0.1,0.2,0.1,0.4,0.3,0.5c0.1,0.1,0.3,0.3,0.5,0.3c0.2,0.1,0.4,0.1,0.7,0.1c0.3,0,0.6-0.1,0.8-0.2
				c0.2-0.2,0.4-0.4,0.4-0.7H-303.3z M-304.1,622.6c0-0.2-0.1-0.4-0.1-0.5c-0.1-0.2-0.2-0.3-0.3-0.4c-0.1-0.1-0.3-0.2-0.4-0.3
				c-0.2-0.1-0.3-0.1-0.5-0.1s-0.4,0-0.6,0.1s-0.3,0.2-0.4,0.3s-0.2,0.3-0.3,0.4c-0.1,0.2-0.1,0.3-0.1,0.5H-304.1z"/>
		</g>
	</g>
</g>
<g>
	<path class="st1" d="M29.8,130.4c0.8,0.8,1.2,2.1,1.2,3.7c0,1.7-0.4,3.1-1.2,4c-0.8,0.9-1.8,1.4-3,1.4c-0.8,0-1.4-0.2-2-0.6
		c-0.3-0.2-0.6-0.5-0.8-0.9v5.1h-2.5v-13.7h2.5v1.5c0.3-0.4,0.6-0.8,0.9-1c0.6-0.4,1.3-0.7,2.1-0.7C28.1,129.1,29,129.6,29.8,130.4z
		 M27.9,132.3c-0.4-0.6-0.9-0.9-1.7-0.9c-0.9,0-1.6,0.4-1.9,1.3c-0.2,0.5-0.3,1.1-0.3,1.8c0,1.1,0.3,1.9,0.9,2.4
		c0.4,0.3,0.8,0.4,1.3,0.4c0.7,0,1.3-0.3,1.7-0.8c0.4-0.6,0.6-1.3,0.6-2.2C28.4,133.5,28.2,132.8,27.9,132.3z"/>
	<path class="st1" d="M35.5,128.2h-2.6v-2.4h2.6V128.2z M32.9,129.4h2.6v9.8h-2.6V129.4z"/>
	<path class="st1" d="M44.4,129.6c0.7,0.3,1.3,0.8,1.7,1.5c0.4,0.6,0.7,1.3,0.8,2c0.1,0.5,0.1,1.1,0.1,2h-7.2c0,1,0.4,1.7,1,2.1
		c0.4,0.2,0.9,0.4,1.4,0.4c0.6,0,1.1-0.2,1.4-0.5c0.2-0.2,0.4-0.4,0.5-0.7h2.6c-0.1,0.6-0.4,1.2-1,1.8c-0.9,1-2.1,1.4-3.7,1.4
		c-1.3,0-2.5-0.4-3.5-1.2c-1-0.8-1.5-2.1-1.5-3.9c0-1.7,0.5-3,1.4-3.9c0.9-0.9,2.1-1.4,3.5-1.4C43,129.1,43.7,129.2,44.4,129.6z
		 M40.6,131.8c-0.4,0.4-0.6,0.9-0.7,1.5h4.4c0-0.7-0.3-1.2-0.7-1.6c-0.4-0.4-0.9-0.5-1.5-0.5C41.4,131.2,40.9,131.4,40.6,131.8z"/>
	<path class="st1" d="M53.8,129.1c0,0,0.1,0,0.2,0v2.6c-0.2,0-0.3,0-0.4,0c-0.1,0-0.2,0-0.3,0c-1,0-1.7,0.3-2.1,1
		c-0.2,0.4-0.3,1-0.3,1.8v4.7h-2.6v-9.8h2.5v1.7c0.4-0.7,0.7-1.1,1-1.3c0.5-0.4,1.1-0.6,1.9-0.6C53.7,129.1,53.7,129.1,53.8,129.1z"
		/>
	<path class="st1" d="M61,129.1c0,0,0.1,0,0.2,0v2.6c-0.2,0-0.3,0-0.4,0c-0.1,0-0.2,0-0.3,0c-1,0-1.7,0.3-2.1,1
		c-0.2,0.4-0.3,1-0.3,1.8v4.7h-2.6v-9.8h2.5v1.7c0.4-0.7,0.7-1.1,1-1.3c0.5-0.4,1.1-0.6,1.9-0.6C60.9,129.1,60.9,129.1,61,129.1z"/>
	<path class="st1" d="M69.1,129.6c0.7,0.3,1.3,0.8,1.7,1.5c0.4,0.6,0.7,1.3,0.8,2c0.1,0.5,0.1,1.1,0.1,2h-7.2c0,1,0.4,1.7,1,2.1
		c0.4,0.2,0.9,0.4,1.4,0.4c0.6,0,1.1-0.2,1.4-0.5c0.2-0.2,0.4-0.4,0.5-0.7h2.6c-0.1,0.6-0.4,1.2-1,1.8c-0.9,1-2.1,1.4-3.7,1.4
		c-1.3,0-2.5-0.4-3.5-1.2c-1-0.8-1.5-2.1-1.5-3.9c0-1.7,0.5-3,1.4-3.9c0.9-0.9,2.1-1.4,3.5-1.4C67.6,129.1,68.4,129.2,69.1,129.6z
		 M65.3,131.8c-0.4,0.4-0.6,0.9-0.7,1.5H69c0-0.7-0.3-1.2-0.7-1.6c-0.4-0.4-0.9-0.5-1.5-0.5C66.1,131.2,65.6,131.4,65.3,131.8z"/>
	<path class="st1" d="M84,132.9c0-0.4-0.2-0.7-0.4-1c-0.3-0.4-0.7-0.6-1.3-0.6c-0.9,0-1.5,0.4-1.8,1.3c-0.2,0.5-0.3,1.1-0.3,1.8
		c0,0.7,0.1,1.3,0.3,1.7c0.3,0.8,0.9,1.2,1.7,1.2c0.6,0,1-0.2,1.3-0.5c0.3-0.3,0.4-0.7,0.5-1.3h2.6c-0.1,0.8-0.3,1.5-0.9,2.2
		c-0.8,1.1-2,1.7-3.6,1.7c-1.6,0-2.8-0.5-3.5-1.4c-0.7-0.9-1.1-2.2-1.1-3.7c0-1.7,0.4-3,1.2-3.9c0.8-0.9,2-1.4,3.4-1.4
		c1.2,0,2.2,0.3,3,0.8c0.8,0.6,1.3,1.5,1.4,2.9H84z"/>
	<path class="st1" d="M92.3,133.2c0.5-0.1,0.8-0.1,1-0.2c0.4-0.2,0.6-0.4,0.6-0.7c0-0.4-0.1-0.7-0.4-0.8c-0.3-0.2-0.7-0.2-1.2-0.2
		c-0.6,0-1.1,0.2-1.3,0.5c-0.2,0.2-0.3,0.5-0.4,0.9h-2.5c0.1-0.9,0.3-1.6,0.7-2.1c0.7-0.9,1.9-1.3,3.5-1.3c1.1,0,2,0.2,2.9,0.6
		c0.8,0.4,1.3,1.2,1.3,2.4v4.5c0,0.3,0,0.7,0,1.1c0,0.3,0.1,0.6,0.2,0.7c0.1,0.1,0.2,0.2,0.4,0.3v0.4h-2.8c-0.1-0.2-0.1-0.4-0.2-0.6
		c0-0.2-0.1-0.4-0.1-0.6c-0.4,0.4-0.8,0.7-1.2,1c-0.6,0.3-1.2,0.5-1.9,0.5c-0.9,0-1.6-0.3-2.2-0.8c-0.6-0.5-0.9-1.2-0.9-2.2
		c0-1.2,0.5-2.1,1.4-2.6c0.5-0.3,1.3-0.5,2.3-0.6L92.3,133.2z M93.9,134.4c-0.2,0.1-0.3,0.2-0.5,0.2c-0.2,0.1-0.4,0.1-0.7,0.2
		l-0.6,0.1c-0.5,0.1-0.9,0.2-1.2,0.4c-0.4,0.2-0.6,0.6-0.6,1.1c0,0.4,0.1,0.8,0.4,1c0.2,0.2,0.5,0.3,0.9,0.3c0.6,0,1.1-0.2,1.6-0.5
		s0.7-0.9,0.7-1.8V134.4z"/>
	<path class="st1" d="M104.2,129.1c0,0,0.1,0,0.2,0v2.6c-0.2,0-0.3,0-0.4,0c-0.1,0-0.2,0-0.3,0c-1,0-1.7,0.3-2.1,1
		c-0.2,0.4-0.3,1-0.3,1.8v4.7h-2.6v-9.8h2.5v1.7c0.4-0.7,0.7-1.1,1-1.3c0.5-0.4,1.1-0.6,1.9-0.6
		C104.1,129.1,104.1,129.1,104.2,129.1z"/>
	<path class="st1" d="M111.1,129.5c0.5,0.3,0.8,0.6,1.1,1.1v-4.7h2.6v13.3h-2.5v-1.4c-0.4,0.6-0.8,1-1.3,1.3
		c-0.5,0.3-1.1,0.4-1.8,0.4c-1.1,0-2.1-0.5-2.9-1.4c-0.8-0.9-1.2-2.1-1.2-3.6c0-1.7,0.4-3,1.2-4c0.8-1,1.8-1.4,3.1-1.4
		C110.1,129.1,110.7,129.2,111.1,129.5z M111.8,136.5c0.4-0.5,0.6-1.2,0.6-2.1c0-1.2-0.3-2.1-0.9-2.6c-0.4-0.3-0.8-0.5-1.3-0.5
		c-0.8,0-1.3,0.3-1.7,0.9c-0.4,0.6-0.5,1.3-0.5,2.1c0,0.9,0.2,1.6,0.5,2.2c0.4,0.5,0.9,0.8,1.6,0.8
		C110.8,137.3,111.4,137.1,111.8,136.5z"/>
	<path class="st1" d="M119.8,128.2h-2.6v-2.4h2.6V128.2z M117.2,129.4h2.6v9.8h-2.6V129.4z"/>
	<path class="st1" d="M130.3,129.9c0.6,0.5,1,1.4,1,2.7v6.6h-2.6v-6c0-0.5-0.1-0.9-0.2-1.2c-0.3-0.5-0.7-0.8-1.4-0.8
		c-0.9,0-1.5,0.4-1.8,1.1c-0.2,0.4-0.3,0.9-0.3,1.5v5.3h-2.6v-9.8h2.5v1.4c0.3-0.5,0.6-0.9,0.9-1.1c0.5-0.4,1.2-0.6,2-0.6
		C128.8,129.1,129.6,129.4,130.3,129.9z"/>
	<g>
		<path class="st1" d="M59.3,156.2v-8h3c0.5,0,0.9,0,1.2,0.1c0.4,0.1,0.7,0.2,1,0.4c0.3,0.2,0.5,0.4,0.6,0.8
			c0.2,0.3,0.2,0.7,0.2,1.1c0,0.7-0.2,1.3-0.7,1.7c-0.4,0.5-1.2,0.7-2.4,0.7h-2.1v3.3H59.3z M60.4,152h2.1c0.7,0,1.2-0.1,1.5-0.4
			c0.3-0.3,0.4-0.6,0.4-1.1c0-0.3-0.1-0.6-0.3-0.9c-0.2-0.2-0.4-0.4-0.7-0.5c-0.2,0-0.5-0.1-1-0.1h-2.1V152z"/>
		<path class="st1" d="M65.4,156.2l3.1-8h1.2l3.3,8h-1.2l-0.9-2.4h-3.4l-0.9,2.4H65.4z M67.7,152.9h2.7l-0.8-2.2
			c-0.3-0.7-0.4-1.2-0.6-1.7c-0.1,0.5-0.3,1-0.4,1.5L67.7,152.9z"/>
		<path class="st1" d="M74.1,156.2v-8h3.6c0.7,0,1.3,0.1,1.6,0.2c0.4,0.1,0.7,0.4,0.9,0.8c0.2,0.4,0.3,0.8,0.3,1.2
			c0,0.6-0.2,1-0.6,1.4c-0.4,0.4-0.9,0.6-1.7,0.7c0.3,0.1,0.5,0.3,0.6,0.4c0.3,0.3,0.6,0.6,0.9,1.1l1.4,2.2h-1.3l-1.1-1.7
			c-0.3-0.5-0.6-0.9-0.8-1.1c-0.2-0.3-0.4-0.4-0.5-0.5c-0.2-0.1-0.3-0.2-0.5-0.2c-0.1,0-0.3,0-0.6,0h-1.2v3.6H74.1z M75.2,151.8h2.3
			c0.5,0,0.9-0.1,1.1-0.2c0.3-0.1,0.5-0.3,0.6-0.5c0.1-0.2,0.2-0.5,0.2-0.7c0-0.4-0.1-0.7-0.4-0.9c-0.3-0.2-0.7-0.4-1.3-0.4h-2.5
			V151.8z"/>
		<rect x="82.7" y="148.2" class="st1" width="1.1" height="8"/>
		<path class="st1" d="M85.5,153.7l1-0.1c0.1,0.4,0.2,0.7,0.3,1c0.2,0.3,0.4,0.5,0.8,0.6c0.4,0.2,0.8,0.2,1.2,0.2
			c0.4,0,0.8-0.1,1.1-0.2c0.3-0.1,0.5-0.3,0.7-0.5c0.2-0.2,0.2-0.4,0.2-0.7c0-0.2-0.1-0.5-0.2-0.7c-0.1-0.2-0.4-0.3-0.7-0.5
			c-0.2-0.1-0.7-0.2-1.4-0.4c-0.7-0.2-1.3-0.3-1.6-0.5c-0.4-0.2-0.7-0.5-0.9-0.8c-0.2-0.3-0.3-0.6-0.3-1c0-0.4,0.1-0.8,0.3-1.1
			c0.2-0.3,0.6-0.6,1-0.8c0.4-0.2,0.9-0.3,1.5-0.3c0.6,0,1.1,0.1,1.6,0.3c0.4,0.2,0.8,0.5,1,0.8c0.2,0.4,0.4,0.8,0.4,1.3l-1,0.1
			c-0.1-0.5-0.2-0.9-0.6-1.2c-0.3-0.3-0.8-0.4-1.4-0.4c-0.6,0-1.1,0.1-1.4,0.4c-0.3,0.2-0.4,0.5-0.4,0.8c0,0.3,0.1,0.5,0.3,0.7
			c0.2,0.2,0.7,0.4,1.6,0.6c0.9,0.2,1.5,0.4,1.8,0.5c0.5,0.2,0.8,0.5,1,0.8c0.2,0.3,0.3,0.7,0.3,1.1c0,0.4-0.1,0.8-0.4,1.2
			c-0.2,0.4-0.6,0.7-1,0.9c-0.5,0.2-1,0.3-1.5,0.3c-0.7,0-1.3-0.1-1.8-0.3c-0.5-0.2-0.9-0.5-1.2-1C85.7,154.7,85.5,154.2,85.5,153.7
			"/>
	</g>
</g>
</svg>
